<?xml version="1.0" encoding="utf-8"?>
<!-- Generator: Adobe Illustrator 16.0.0, SVG Export Plug-In . SVG Version: 6.00 Build 0)  -->
<!DOCTYPE svg PUBLIC "-//W3C//DTD SVG 1.1//EN" "http://www.w3.org/Graphics/SVG/1.1/DTD/svg11.dtd">
<svg version="1.1" id="Layer_1" xmlns="http://www.w3.org/2000/svg" xmlns:xlink="http://www.w3.org/1999/xlink" x="0px" y="0px"
	 width="504px" height="360px" viewBox="0 0 504 360" enable-background="new 0 0 504 360" xml:space="preserve">
<g>
	<path d="M18.642,123.81l7.392-0.419c0.276,0,0.553-0.276,0.553-0.696l0.144-65.64L18.5,56.638c0-3.618,0.142-7.787,0.276-11.539
		c6.981-0.142,20.789-0.418,28.744-0.418c13.541,0,23.585,0,31.675,3.618c6.282,2.912,11.859,10.146,11.859,17.237
		c0,9.462-7.256,16.83-16.186,20.169v1.113c11.728,1.943,21.074,10.843,21.074,22.522c0,14.603-14.372,26.005-38.376,26.005
		c-4.46,0-16.741-0.133-19.529-0.133c-4.745,0-14.094,0-19.537,0C18.5,131.596,18.5,127.427,18.642,123.81z M49.478,120.611
		c0,3.056,2.932,3.751,6.14,3.751c8.928,0,15.766-4.865,15.766-14.184c0-7.785-6.694-15.296-18-15.296c-1.395,0-3.353,0-3.629,0.142
		L49.478,120.611z M49.755,83.622c0.419,0.133,2.509,0.133,3.484,0.133c8.796,0,15.069-5.559,15.069-14.183
		c0-7.368-5.72-14.048-13.674-14.048c-2.37,0-3.763,0.143-4.737,0.418L49.755,83.622z"/>
	<path d="M107.379,57.332c0-4.028,0.136-8.623,0.136-12.516c9.768,0,24.282,0,35.024,0c4.184,11.127,13.399,38.102,19.815,56.882
		h1.117c6.694-18.78,14.506-41.024,20.227-56.882c9.768,0,23.022,0,32.372,0c0,3.893-0.134,8.488-0.134,12.516l-6.982,0.419
		c-0.276,0-0.419,0.276-0.419,0.56c0.143,19.886,0.143,43.805,0.285,64.804l7.668,0.417c0,3.61,0,7.921-0.134,11.681
		c-4.612,0-11.44,0-16.605,0c-6.839,0-14.65,0-20.513,0c0-3.76,0.143-8.071,0.143-11.681l7.947-0.417
		c0.419,0,0.419-0.278,0.419-0.562c-0.133-14.601-0.277-30.031-0.555-46.86h-1.117c-8.509,24.197-15.765,41.16-21.485,54.372
		c-2.101,0-7.821,0.142-12.146,0.142c-6.417-15.163-12.692-31.572-20.922-56.321h-1.261c-0.277,17.239-0.696,32.953-0.974,49.087
		l9.77,0.56c0,3.61,0,7.921-0.142,11.681c-5.024,0-12.138,0-18,0c-5.167,0-9.625,0-14.229,0c0-3.76,0-8.071,0-11.681l7.256-0.417
		c0.278-0.142,0.412-0.278,0.412-0.562c0.143-19.883,0.419-45.193,0.696-64.802L107.379,57.332z"/>
	<path d="M324.482,56.78c0-4.035,0-7.929,0.136-11.822c9.49-0.142,21.354-0.276,32.236-0.276c7.947,0,12.281,0,20.514,1.942
		c12.146,2.646,19.958,13.488,19.958,22.389c0,11.821-7.543,20.169-17.303,24.205v0.827c6.129,2.923,9.49,10.852,15.753,23.788
		c1.55,3.474,2.523,4.863,4.188,5.005l6.7,0.83c0,3.76-0.136,7.653-0.136,11.546c-2.52,0-7.539,0.133-10.192,0.133
		c-3.061,0-14.921,0.143-17.576,0.143c-3.628-6.254-10.33-22.389-13.116-28.926c-1.816-4.313-4.317-5.979-7.526-5.979
		c-1.682,0-2.79,0.143-3.211,0.276l-0.15,22.388l7.544,0.418c-0.138,3.893-0.138,7.653-0.138,11.546c-5.439,0-13.119,0-19.956,0
		c-5.862,0-12.414,0-17.724,0c0.136-3.894,0.136-7.653,0.136-11.546l6.837-0.418c0.285,0,0.421-0.275,0.421-0.411l0.132-65.782
		L324.482,56.78z M354.906,89.182c0.557,0.142,1.394,0.142,3.342,0.142c9.352,0,15.07-6.54,15.07-15.716
		c0-10.156-6.283-17.665-13.674-17.665c-2.369,0-3.629,0.142-4.468,0.417L354.906,89.182z"/>
	<path d="M422.704,123.115c0.422,0,0.707-0.278,0.707-0.562V57.056l-8.096-0.276c0-4.035,0.131-8.205,0.284-11.964
		c5.156,0,12.414,0,18.277,0c4.317,0,29.296,0,32.64,0c5.862,0,10.751-0.134,13.826-0.134c0.553,8.205,1.107,16.543,1.396,24.749
		c-4.051,0.562-8.938,1.113-13.678,1.533l-2.234-10.709c-0.284-1.248-0.838-2.084-2.786-2.36c-1.965-0.284-5.999-0.838-14.651-0.838
		c-0.418,0-0.987,0-1.393,0l-0.152,26.424c4.335,0,8.385-0.142,12.282-0.276c0.838-0.142,1.543-1.113,1.812-2.646l0.842-5.283
		c4.467,0,9.071,0.143,13.117,0.276c0,4.312-0.149,9.462-0.149,14.467c0,5.007-0.137,10.005-0.137,13.624
		c-4.046,0.284-8.649,0.417-13.12,0.417l-0.688-5.559c-0.134-2.084-0.839-2.922-2.099-2.922c-3.897-0.142-7.812-0.276-11.86-0.276
		l-0.133,24.615c0,2.636,0.975,3.056,7.255,3.056c5.713,0,9.206-0.42,11.154-0.837c1.396-0.41,2.103-1.106,2.654-2.638l4.051-11.127
		c4.735,0.695,9.624,1.666,13.674,2.504c-1.527,8.063-3.345,16.268-5.157,24.472c-6.99,0-26.376-0.133-45.777-0.133
		c-6.42,0-13.524,0.133-19.119,0.133c0-3.893,0-8.062,0.153-11.814L422.704,123.115z"/>
</g>
<g>
	<path d="M74.731,161.561C79.854,157.319,86.227,156,91.348,156c4.024,0,7.539,0.729,9.37,1.536
		c0.295,4.102,0.511,8.269,0.662,12.444c-1.248,0.15-2.712,0.291-4.102,0.441l-1.244-7.912c-0.075-0.582-0.295-0.948-0.586-1.098
		c-1.61-1.023-3.585-1.315-6.002-1.315c-4.101,0-8.344,1.391-11.568,4.685c-4.097,4.101-6.588,9.81-6.588,16.699
		c0,6.289,1.098,10.391,4.538,14.342c2.712,3.078,7.47,4.983,12.299,4.983c4.318,0,9.517-1.539,12.957-3.079
		c0.296,1.174,0.662,2.562,0.878,3.736c-5.561,2.271-10.613,3.585-14.933,3.585c-4.979,0-10.104-1.313-14.126-4.393
		c-4.687-3.66-7.761-9.957-7.761-17.419C65.142,172.985,69.459,165.954,74.731,161.561z"/>
	<path d="M108.039,160.096c0-1.098,0-2.271,0.075-3.367c2.633,0,6.072,0,9.076,0c2.928,0,6.002,0,8.564,0
		c0.075,1.022,0,2.346-0.074,3.367l-5.783,0.217c-0.146,0-0.146,0.149-0.146,0.3l-0.22,40.117l6.297,0.216
		c0,1.023,0,2.347-0.075,3.444c-2.487,0-5.857-0.075-8.785-0.075c-2.854,0-6.148,0.075-8.785,0.075c0-1.098,0-2.347,0.075-3.444
		l5.27-0.216c0.146,0,0.291-0.075,0.291-0.291v-40.125L108.039,160.096z"/>
	<path d="M147.861,200.729c0.221,0,0.291-0.15,0.291-0.291v-40.125c-6.293,0-7.832,0.149-9.513,0.3
		c-1.394,0.142-1.684,0.582-1.83,1.391l-1.173,7.095c-1.319-0.142-2.783-0.217-4.101-0.365c0.295-4.027,0.44-8.12,0.732-12.079
		c1.394,0,3.81,0.075,6.738,0.075c1.61,0,10.029,0,12.441,0c2.271,0,10.615,0,12.375,0c2.999-0.075,4.758-0.075,6.368-0.075
		c0.22,3.959,0.437,7.985,0.586,12.013c-1.248,0.141-2.712,0.29-4.101,0.432l-1.173-7.171c-0.07-0.807-0.437-1.248-1.755-1.314
		c-1.976-0.225-3.294-0.225-9.587-0.225l-0.221,40.341l6.734,0.216c0,1.023-0.075,2.347-0.075,3.444
		c-2.632,0-6.222-0.075-9.221-0.075c-3.074,0-6.444,0.075-9.518,0.075c0-1.173,0-2.347,0.074-3.444L147.861,200.729z"/>
	<path d="M190.904,200.729c0.295,0,0.366-0.15,0.366-0.366v-14.35c-4.317-7.688-9.663-17.572-14.2-25.475
		c-0.072-0.076-0.146-0.226-0.291-0.226l-3.806-0.217c0-1.098,0-2.345,0.071-3.367c2.051,0,4.759,0,7.175,0c3.661,0,7.175,0,10.32,0
		c0,1.022-0.071,2.27-0.071,3.367l-6.588,0.292c2.708,5.35,7.687,14.935,11.126,21.383h0.366
		c2.633-4.759,9.005-16.991,10.906-21.092c0-0.217-0.071-0.366-0.221-0.366l-5.927-0.141c0-1.098,0-2.347,0.07-3.443
		c2.638,0,6.007,0,9.005,0c2.051,0,4.468,0,6.297,0c0,1.022,0,2.27-0.075,3.367l-3.733,0.217
		c-4.54,7.688-10.031,17.722-14.569,25.556l-0.07,14.86l6.659,0.216c0.075,1.023,0,2.347-0.071,3.444
		c-2.637,0-6.222-0.075-9.3-0.075c-3,0-6.369,0.075-9.297,0.075c0-1.098,0-2.347,0.075-3.444L190.904,200.729z"/>
	<path d="M267.26,163.242c-0.074-0.507-0.225-1.023-0.666-1.389c-1.83-1.465-4.533-1.972-7.536-1.972
		c-3.876,0-8.418,1.239-11.933,4.683c-4.098,3.878-6.439,9.52-6.439,16.325c0,6.372,1.535,11.497,5.196,15.224
		c4.247,4.467,9.59,5.425,13.693,5.425c3.801,0,6.729-1.032,6.729-1.765l0.075-12.44l-7.903-0.146c0-1.098,0.066-2.347,0.141-3.511
		c3.004,0,6.814,0.066,10.54,0.066c2.421,0,4.909-0.066,7.104-0.066c0,1.098,0,2.413-0.074,3.511l-3.735,0.146
		c-0.216,0-0.291,0.07-0.291,0.295l-0.142,15.008c-2.496,1.464-7.18,2.412-13.036,2.412c-6.949,0-12.736-1.755-16.612-4.975
		c-4.979-4.251-8.053-10.032-8.053-18.376c0-9.152,4.317-16.549,10.613-21.017c4.977-3.585,11.489-4.68,15.807-4.68
		c4.758,0,8.568,0.804,11.056,2.051c0.225,3.877,0.441,8.054,0.591,12.08c-1.323,0.141-2.787,0.291-4.176,0.433L267.26,163.242z"/>
	<path d="M292.734,184.474c-0.075,7.18,1.022,10.175,3.003,12.737c1.314,1.764,3.727,3.885,8.709,3.885
		c4.684,0,6.805-1.688,8.494-3.37c1.756-1.83,3.511-6.147,3.511-12.886c0-7.021,0.075-16.764,0-24.227c0-0.15-0.075-0.3-0.291-0.3
		l-6.147-0.141c0-1.098,0-2.347,0.066-3.443c2.495,0,5.489,0,8.493,0c2.713,0,5.415,0,7.611,0c0.075,1.022,0,2.27-0.072,3.443
		l-4.611,0.216l-0.149,24.527c-0.065,7.979-2.487,12.811-5.19,15.59c-2.055,2.195-6.007,4.542-11.938,4.542
		c-5.124,0-9.441-1.248-12.511-4.242c-4.177-4.102-4.834-9.084-4.834-15.74v-24.31c0-0.292-0.075-0.441-0.366-0.441l-4.468-0.141
		c0-1.174,0-2.347,0.075-3.443c2.346,0,5.273,0,7.903,0c3.294,0,6.447,0,9.375,0c0,1.022,0,2.27-0.148,3.443l-6.439,0.141
		L292.734,184.474z"/>
	<path d="M331.535,160.096c0-1.098,0-2.271,0.066-3.367c2.638,0,6.081,0,9.085,0c2.928,0,5.997,0,8.56,0
		c0.075,1.022,0,2.346-0.075,3.367l-5.781,0.217c-0.141,0-0.141,0.149-0.141,0.3l-0.226,40.117l6.298,0.216
		c0,1.023,0,2.347-0.075,3.444c-2.487,0-5.856-0.075-8.785-0.075c-2.854,0-6.147,0.075-8.784,0.075c0-1.098,0-2.347,0.074-3.444
		l5.274-0.216c0.141,0,0.291-0.075,0.291-0.291v-40.125L331.535,160.096z"/>
	<path d="M355.618,200.945l5.05-0.141c0.216,0,0.291-0.15,0.291-0.366l0.075-40.05l-5.491-0.216c0-1.098,0.075-2.347,0.075-3.369
		c3.951-0.074,9.442-0.149,15.073-0.149c8.935,0,13.693,1.247,18.086,3.885c6.072,3.511,10.174,10.464,10.174,18.52
		c0,8.494-3.144,16.104-9.151,20.572c-4.317,3.145-9.808,4.759-16.979,4.759c-2.928,0-6.954-0.075-8.719-0.075
		c-2.561,0-5.78,0.075-8.56,0.075C355.543,203.292,355.543,202.043,355.618,200.945z M366.815,198.309
		c0,1.979,0.582,2.637,5.565,2.637c6.588,0,11.488-1.755,14.642-4.608c3.435-3.153,5.781-9.005,5.781-15.082
		c0-8.127-1.98-12.588-6.589-16.691c-3.294-2.853-8.127-4.542-14.857-4.542c-1.979,0-3.659,0.074-4.392,0.291L366.815,198.309z"/>
	<path d="M410.3,200.729c0.074,0,0.216-0.075,0.216-0.225v-40.192l-5.416-0.217c0-1.098,0.075-2.271,0.15-3.367
		c2.487,0,5.565,0,8.419,0c2.196,0,14.416,0,16.171,0c3.079-0.075,4.759-0.075,6.373-0.075c0.291,3.659,0.516,7.396,0.657,11.13
		c-1.173,0.15-2.487,0.366-3.876,0.441l-1.174-6.372c-0.15-0.658-0.516-1.099-1.68-1.24c-1.905-0.225-6.814-0.366-11.572-0.366
		c-0.731,0-1.83,0-2.196,0l-0.068,18.004c4.095,0,7.539,0,11.49-0.065c1.249-0.075,1.614-0.517,1.68-1.464l0.366-3.521
		c1.174,0,2.638,0,3.736,0c-0.075,2.272-0.075,4.619-0.142,7.031c0,2.196,0,4.608,0,6.737c-1.173,0.067-2.496,0.143-3.735,0.143
		l-0.291-3.876c-0.075-1.024-0.516-1.39-1.762-1.39c-3.296-0.074-7.023-0.074-11.343-0.074l-0.073,17.569
		c0,1.238,0.217,1.464,4.103,1.464c5.922,0,10.099-0.226,11.337-0.517c0.666-0.149,1.032-0.657,1.324-1.464l2.337-6.663
		c1.322,0.225,2.712,0.516,3.811,0.732c-0.808,3.81-1.681,7.686-2.562,11.496c-3.369,0-12.887-0.075-22.769-0.075
		c-3.07,0-5.998,0.075-8.636,0.075c0-1.098,0-2.347,0-3.444L410.3,200.729z"/>
</g>
<circle stroke="#000000" stroke-width="4" stroke-miterlimit="10" cx="271.244" cy="91.13" r="48.61"/>
<ellipse stroke="#FFFFFF" stroke-miterlimit="10" cx="271.243" cy="89.901" rx="10" ry="9.302"/>
<circle fill="none" stroke="#FFFFFF" stroke-width="4" stroke-miterlimit="10" cx="271.244" cy="91.13" r="40.833"/>
<rect x="268.792" y="52.014" fill="#FFFFFF" width="2" height="5.054"/>
<rect x="268.792" y="125.457" fill="#FFFFFF" width="2" height="5.054"/>
<rect x="233.712" y="89.648" transform="matrix(0.0596 0.9982 -0.9982 0.0596 312.7351 -147.6131)" fill="#FFFFFF" width="1.999" height="5.053"/>
<rect x="306.72" y="84.474" transform="matrix(0.0596 0.9982 -0.9982 0.0596 376.2269 -225.3562)" fill="#FFFFFF" width="1.999" height="5.053"/>
<rect x="250.78" y="55.746" transform="matrix(0.8136 -0.5815 0.5815 0.8136 12.9625 156.9753)" fill="#FFFFFF" width="0.999" height="5.053"/>
<rect x="237.23" y="70.313" transform="matrix(0.4942 -0.8693 0.8693 0.4942 56.9122 243.5028)" fill="#FFFFFF" width="1" height="5.053"/>
<rect x="303.176" y="67.979" transform="matrix(0.6212 0.7836 -0.7836 0.6212 170.2737 -211.2628)" fill="#FFFFFF" width="0.998" height="5.053"/>
<rect x="289.392" y="54.415" transform="matrix(0.8933 0.4496 -0.4496 0.8933 56.5442 -124.2445)" fill="#FFFFFF" width="0.999" height="5.053"/>
<rect x="237.495" y="107.83" transform="matrix(-0.5247 -0.8513 0.8513 -0.5247 268.9338 370.8611)" fill="#FFFFFF" width="1" height="5.052"/>
<rect x="250.402" y="121.557" transform="matrix(-0.8344 -0.5511 0.5511 -0.8344 391.886 365.8936)" fill="#FFFFFF" width="0.999" height="5.053"/>
<rect x="291.601" y="121.056" transform="matrix(-0.8023 0.5969 -0.5969 -0.8023 600.2249 48.3924)" fill="#FFFFFF" width="0.998" height="5.052"/>
<rect x="305.596" y="106.225" transform="matrix(-0.4756 0.8797 -0.8797 -0.4756 547.3282 -108.7981)" fill="#FFFFFF" width="0.998" height="5.053"/>
<g>
	<polygon fill="#FFFFFF" points="267.888,87.361 292.099,67.123 273.05,92.33 	"/>
	<polygon fill="#FFFFFF" points="273.448,91.919 248.948,112.155 268.356,86.824 	"/>
</g>
<ellipse stroke="#000000" stroke-miterlimit="10" cx="271.244" cy="89.294" rx="1.959" ry="1.975"/>
<polygon fill="#FFFFFF" points="266.423,81.779 263.136,72.12 268.108,80.945 "/>
<polygon fill="#FFFFFF" points="277.348,97.486 281.52,106.796 275.747,98.473 "/>
<polygon fill="#FFFFFF" points="279.918,85.399 289.271,81.321 280.889,87.01 "/>
<polygon fill="#FFFFFF" points="262.596,94.725 252.887,97.866 261.787,93.027 "/>
<polygon fill="#FFFFFF" points="274.216,81.611 277.278,76.271 275.266,82.042 "/>
<polygon fill="#FFFFFF" points="280.766,92.307 286.556,94.398 280.523,93.416 "/>
<polygon fill="#FFFFFF" points="262.369,86.933 256.816,84.276 262.722,85.854 "/>
<polygon fill="#FFFFFF" points="269.392,98.791 266.825,104.385 268.307,98.457 "/>
</svg>
