<?xml version="1.0" encoding="utf-8"?>
<!-- Generator: Adobe Illustrator 16.0.0, SVG Export Plug-In . SVG Version: 6.00 Build 0)  -->
<!DOCTYPE svg PUBLIC "-//W3C//DTD SVG 1.1//EN" "http://www.w3.org/Graphics/SVG/1.1/DTD/svg11.dtd">
<svg xmlns="http://www.w3.org/2000/svg" version="1.1" x="0" y="0" width="304.5" height="229.3" viewBox="24.3 46.2 304.5 229.3" enable-background="new 24.329 46.242 304.478 229.279" xml:space="preserve"><path stroke="#000000" stroke-miterlimit="10" d="M328.8 263.5c0 6.6-5.4 12-12 12H36.3c-6.6 0-12-5.4-12-12V96.5c0-6.6 5.4-12 12-12h280.5c6.6 0 12 5.4 12 12V263.5z"/><polygon stroke="#000000" stroke-miterlimit="10" points="100.9 81.6 133 46.2 209.8 46.2 240.9 81.6 "/><polygon stroke="#000000" stroke-miterlimit="10" points="261.9 81.6 274.2 66.6 297.7 66.6 310.3 81.6 "/><polygon stroke="#000000" stroke-miterlimit="10" points="42.3 81.6 48 71.8 61.7 71.8 67.3 81.6 "/><rect x="24.3" y="126" fill="#FFFFFF" stroke="#000000" stroke-miterlimit="10" width="304.5" height="5.5"/><circle stroke="#FFFFFF" stroke-width="16.4" stroke-miterlimit="10" cx="198" cy="183.1" r="64.5"/><path fill="#FFFFFF" stroke="#000000" stroke-miterlimit="10" d="M189.6 63.9c0 4.4-3.5 7.9-7.9 7.9h-21.7c-4.4 0-7.9-3.5-7.9-7.9l0 0c0-4.4 3.5-7.9 7.9-7.9h21.7C186.1 56 189.6 59.5 189.6 63.9L189.6 63.9z"/></svg>
