<?xml version="1.0" encoding="utf-8"?>
<!-- Generator: Adobe Illustrator 16.0.0, SVG Export Plug-In . SVG Version: 6.00 Build 0)  -->
<!DOCTYPE svg PUBLIC "-//W3C//DTD SVG 1.1//EN" "http://www.w3.org/Graphics/SVG/1.1/DTD/svg11.dtd">
<svg version="1.1" id="Layer_1" xmlns="http://www.w3.org/2000/svg" xmlns:xlink="http://www.w3.org/1999/xlink" x="0px" y="0px"
	 width="360px" height="360px" viewBox="0 0 360 360" enable-background="new 0 0 360 360" xml:space="preserve">
<path stroke="#000000" stroke-width="0.9462" stroke-miterlimit="10" d="M226.983,310.09c0,6.627-4.81,12-10.745,12h-83.403
	c-5.93,0-10.739-5.373-10.739-12l-28.68-194.656c0-6.627,4.81-12,10.745-12h137.51c5.937,0,10.745,5.373,10.745,12L226.983,310.09z"
	/>
<polygon stroke="#000000" stroke-width="0.9443" stroke-miterlimit="10" points="259.744,98.393 87.744,98.393 99.599,77.956 
	246.884,77.956 "/>
<polygon stroke="#000000" stroke-width="0.7803" stroke-miterlimit="10" points="232.198,74.357 112.197,74.357 120.468,54.358 
	223.228,54.358 "/>
<rect x="95.5" y="165.2" fill="#FFFFFF" width="155" height="22"/>
<path stroke="#FFFFFF" stroke-width="12" stroke-miterlimit="10" d="M217.967,176.481c0,15.66-12.755,28.361-28.497,28.361
	c-15.739,0-28.5-12.701-28.5-28.361c0-15.663,12.761-28.362,28.5-28.362C205.212,148.119,217.967,160.818,217.967,176.481z"/>
</svg>
